<svg width="16" height="16" viewBox="0 0 16 16" fill="none" xmlns="http://www.w3.org/2000/svg">
<g style="mix-blend-mode:multiply" opacity="0.25">
<path d="M7.49009 0.31697C7.69867 -0.105658 8.30133 -0.105656 8.50991 0.316971L10.5415 4.43349C10.6244 4.60132 10.7845 4.71764 10.9697 4.74455L15.5125 5.40467C15.9789 5.47244 16.1651 6.0456 15.8277 6.37457L12.5404 9.57883C12.4064 9.70947 12.3453 9.89768 12.3769 10.0821L13.1529 14.6066C13.2326 15.0711 12.745 15.4254 12.3279 15.2061L8.2646 13.0699C8.09895 12.9828 7.90105 12.9828 7.7354 13.0699L3.67215 15.2061C3.25499 15.4254 2.76743 15.0711 2.8471 14.6066L3.62311 10.0821C3.65475 9.89768 3.5936 9.70947 3.45958 9.57883L0.172339 6.37457C-0.165149 6.0456 0.021082 5.47244 0.487479 5.40467L5.03033 4.74455C5.21554 4.71764 5.37564 4.60132 5.45847 4.43349L7.49009 0.31697Z" fill="black" style="mix-blend-mode:overlay"/>
</g>
</svg>
